<svg width="400" height="400" viewBox="0 0 400 400" fill="none" xmlns="http://www.w3.org/2000/svg">
<path d="M400 284.941C400 279.031 398.545 273.179 395.718 267.72C392.891 262.26 388.747 257.3 383.523 253.122C378.3 248.945 372.098 245.631 365.274 243.372C358.45 241.112 351.136 239.95 343.75 239.953H56.25C48.8622 239.95 41.5462 241.113 34.7202 243.374C27.8941 245.635 21.6919 248.95 16.4679 253.13C11.244 257.309 7.10075 262.272 4.27509 267.734C1.44943 273.196 -0.00328009 279.049 5.56101e-06 284.961V303.364C5.56101e-06 314.786 4.45001 325.948 12.75 335.269C51.325 378.556 114.375 400 199.9 400C285.4 400 348.525 378.576 387.15 335.289C395.487 325.972 399.98 314.803 400 303.344V284.941ZM324.925 100.029C324.928 78.965 316.62 58.4374 301.184 41.3737C285.748 24.31 263.973 11.5814 238.964 5.0028C213.954 -1.57582 186.988 -1.66857 161.909 4.73778C136.83 11.1441 114.919 23.7225 99.3 40.6794C97.4885 40.2203 95.6002 39.9842 93.7 39.9793H31.25C26.2772 39.9793 21.5081 41.5599 17.9918 44.3734C14.4754 47.1869 12.5 51.0029 12.5 54.9818V164.96C12.4934 172.188 14.2669 179.345 17.7189 186.024C21.171 192.702 26.2341 198.771 32.6187 203.884C39.0034 208.996 46.5846 213.051 54.929 215.818C63.2734 218.585 72.2174 220.01 81.25 220.01H87.5V219.93H87.75C91.9856 219.935 96.1532 219.077 99.86 217.438C103.567 215.798 106.691 213.43 108.938 210.557C111.185 207.684 112.481 204.401 112.704 201.017C112.927 197.632 112.069 194.258 110.212 191.213C108.355 188.167 105.559 185.549 102.088 183.607C98.6172 181.665 94.5854 180.461 90.3726 180.11C86.1597 179.759 81.9046 180.272 78.008 181.601C74.1114 182.929 70.7016 185.03 68.1 187.704C62.6861 185.695 58.1045 182.487 54.897 178.46C51.6895 174.433 49.9902 169.756 50 164.98V160H68.7C78.2 160 87.025 157.559 94.2 153.438C108.66 171.781 130.179 185.866 155.514 193.571C180.849 201.276 208.628 202.183 234.664 196.156C260.699 190.129 283.582 177.495 299.862 160.157C316.142 142.818 324.939 121.716 324.925 100.029ZM74.925 97.909C74.8884 99.3225 74.8884 100.736 74.925 102.15V124.974C74.925 126.3 74.2665 127.572 73.0944 128.51C71.9223 129.448 70.3326 129.974 68.675 129.974H50V70.0043H74.95L74.925 97.909Z" fill="black"/>
</svg>
